<?xml version="1.0" standalone="no"?><!DOCTYPE svg PUBLIC "-//W3C//DTD SVG 1.1//EN" "http://www.w3.org/Graphics/SVG/1.1/DTD/svg11.dtd"><svg t="1487822236286" class="icon" style="" viewBox="0 0 1024 1024" version="1.1" xmlns="http://www.w3.org/2000/svg" p-id="2015" xmlns:xlink="http://www.w3.org/1999/xlink" width="200" height="200"><defs><style type="text/css"></style></defs><path d="M196.923077 810.673231 196.923077 630.153846 157.538462 630.153846l0 200.861538c0 41.334154 33.496615 74.830769 74.830769 74.830769L433.230769 905.846154l0-39.384615-180.519385 0C221.912615 866.461538 196.923077 841.472 196.923077 810.673231zM196.923077 252.711385C196.923077 221.912615 221.912615 196.923077 252.711385 196.923077L433.230769 196.923077 433.230769 157.538462 232.369231 157.538462C191.035077 157.538462 157.538462 191.035077 157.538462 232.369231L157.538462 433.230769l39.384615 0L196.923077 252.711385zM866.461538 252.711385 866.461538 433.230769l39.384615 0L905.846154 232.369231C905.846154 191.035077 872.349538 157.538462 831.015385 157.538462L630.153846 157.538462l0 39.384615 180.499692 0C841.472 196.923077 866.461538 221.912615 866.461538 252.711385zM866.461538 810.673231C866.461538 841.472 841.472 866.461538 810.653538 866.461538L630.153846 866.461538l0 39.384615 200.861538 0c41.334154 0 74.830769-33.496615 74.830769-74.830769L905.846154 630.153846l-39.384615 0L866.461538 810.673231zM137.846154 492.307692l0 78.769231 787.692308 0 0-78.769231L137.846154 492.307692z" p-id="2016"></path></svg>